<svg xmlns="http://www.w3.org/2000/svg" width="1200" height="628" viewBox="0 0 1200 628" role="img" aria-labelledby="title desc">
  <title id="title">広告バナー完成例</title>
  <desc id="desc">教材制作サービスの広告バナー完成例。</desc>
  <defs>
    <filter id="shadow" x="-20%" y="-20%" width="140%" height="140%"><feDropShadow dx="0" dy="18" stdDeviation="16" flood-opacity=".16"/></filter>
  </defs>
  <rect width="1200" height="628" fill="#f2f6f1"/>
  <rect x="42" y="42" width="1116" height="544" rx="20" fill="#fffdf8" stroke="#d6dacb" stroke-width="3"/>
  <path d="M735 42h423v544H610c84-94 117-197 125-544Z" fill="#dbe9df"/>
  <text x="86" y="124" fill="#2f6b4f" font-family="sans-serif" font-size="30" font-weight="700">小学校の先生へ</text>
  <text x="86" y="206" fill="#172027" font-family="sans-serif" font-size="60" font-weight="800">5分で授業準備を</text>
  <text x="86" y="280" fill="#172027" font-family="sans-serif" font-size="60" font-weight="800">軽くする</text>
  <text x="88" y="336" fill="#52616d" font-family="sans-serif" font-size="29">生成AI × 教材テンプレート実践集</text>
  <g transform="translate(86 382)">
    <rect width="420" height="92" rx="18" fill="#f3ead2"/>
    <text x="28" y="38" fill="#704c10" font-family="sans-serif" font-size="22" font-weight="700">ワークシート・スライド・問いづくり</text>
    <text x="28" y="68" fill="#704c10" font-family="sans-serif" font-size="22">すぐ使える型をまとめました</text>
  </g>
  <rect x="86" y="504" width="260" height="58" rx="29" fill="#2f6b4f"/>
  <text x="132" y="542" fill="#fff" font-family="sans-serif" font-size="26" font-weight="700">無料で見る</text>
  <g filter="url(#shadow)" transform="translate(675 106)">
    <rect width="330" height="386" rx="24" fill="#fff"/>
    <rect x="26" y="30" width="278" height="50" rx="10" fill="#244b61"/>
    <text x="48" y="64" fill="#fff" font-family="sans-serif" font-size="22" font-weight="700">今日の問い</text>
    <rect x="28" y="112" width="126" height="92" rx="12" fill="#e7edf2"/>
    <rect x="176" y="112" width="126" height="92" rx="12" fill="#e7edf2"/>
    <rect x="28" y="230" width="274" height="20" rx="10" fill="#c9d4dd"/>
    <rect x="28" y="266" width="220" height="20" rx="10" fill="#c9d4dd"/>
    <rect x="28" y="320" width="274" height="40" rx="10" fill="#f1f5f7" stroke="#b8c4cf" stroke-dasharray="6 6"/>
  </g>
</svg>
