<svg xmlns="http://www.w3.org/2000/svg" width="794" height="1123" viewBox="0 0 794 1123" role="img" aria-labelledby="title desc">
  <title id="title">チラシ完成例</title>
  <desc id="desc">校内研修チラシの完成例。</desc>
  <rect width="794" height="1123" fill="#e9eef2"/>
  <rect x="48" y="42" width="698" height="1038" fill="#fffdf8" stroke="#d8d2c4" stroke-width="3"/>
  <rect x="48" y="42" width="698" height="252" fill="#244b61"/>
  <text x="86" y="118" fill="#f3ead2" font-family="sans-serif" font-size="26" font-weight="700">校内研修 60分</text>
  <text x="86" y="184" fill="#fff" font-family="sans-serif" font-size="48" font-weight="800">生成AIで</text>
  <text x="86" y="244" fill="#fff" font-family="sans-serif" font-size="48" font-weight="800">教材準備を変える</text>
  <g transform="translate(86 344)">
    <rect width="590" height="148" rx="18" fill="#e7f0ec"/>
    <text x="28" y="54" fill="#1c2730" font-family="sans-serif" font-size="28" font-weight="800">明日から使える3つの型</text>
    <text x="28" y="98" fill="#52616d" font-family="sans-serif" font-size="22">問いづくり / 資料整理 / ワークシート改善</text>
  </g>
  <g font-family="sans-serif" transform="translate(86 542)">
    <rect width="288" height="150" rx="14" fill="#f6efe2"/>
    <text x="24" y="48" fill="#1c2730" font-size="24" font-weight="800">対象</text>
    <text x="24" y="88" fill="#52616d" font-size="21">授業準備を軽くしたい先生</text>
  </g>
  <g font-family="sans-serif" transform="translate(388 542)">
    <rect width="288" height="150" rx="14" fill="#edf2f6"/>
    <text x="24" y="48" fill="#1c2730" font-size="24" font-weight="800">持ち物</text>
    <text x="24" y="88" fill="#52616d" font-size="21">端末 / 作りたい教材案</text>
  </g>
  <rect x="86" y="746" width="590" height="130" rx="14" fill="#fff" stroke="#d8d2c4"/>
  <text x="112" y="800" fill="#1c2730" font-family="sans-serif" font-size="24" font-weight="800">日時</text>
  <text x="190" y="800" fill="#52616d" font-family="sans-serif" font-size="24">5月30日 15:30-16:30 / 図書室</text>
  <rect x="86" y="922" width="260" height="62" rx="31" fill="#2f6b4f"/>
  <text x="132" y="962" fill="#fff" font-family="sans-serif" font-size="24" font-weight="700">参加する</text>
</svg>
